<?xml version="1.0" standalone="no"?>
<!DOCTYPE svg PUBLIC "-//W3C//DTD SVG 20010904//EN"
 "http://www.w3.org/TR/2001/REC-SVG-20010904/DTD/svg10.dtd">
<svg version="1.0" xmlns="http://www.w3.org/2000/svg"
 width="826.000000pt" height="826.000000pt" viewBox="0 0 826.000000 826.000000"
 preserveAspectRatio="xMidYMid meet">

<g transform="translate(0.000000,826.000000) scale(0.100000,-0.100000)"
fill="#000000" stroke="none">
<path d="M217 8139 c116 -116 124 -121 154 -115 18 3 41 14 51 23 17 16 21 14
58 -22 l40 -39 -67 -68 c-66 -67 -67 -67 -92 -51 -267 175 -361 231 -361 215
0 -11 64 -58 187 -137 103 -66 191 -122 196 -124 5 -2 47 34 93 80 l84 83 -50
51 c-50 51 -51 51 -30 70 44 39 5 155 -52 155 -18 0 -16 -5 16 -40 20 -22 36
-47 36 -56 0 -23 -93 -114 -116 -114 -11 0 -64 45 -124 105 -64 65 -112 105
-125 105 -15 0 13 -33 102 -121z"/>
<path d="M1620 8244 c0 -37 40 -83 73 -84 16 0 17 -16 17 -200 0 -200 0 -201
25 -225 l24 -25 344 0 344 0 24 26 c23 25 24 30 27 225 3 168 5 199 18 199 24
0 64 47 64 75 0 34 -12 31 -30 -8 -8 -17 -23 -33 -32 -35 -15 -3 -18 4 -18 32
l0 36 -64 0 c-49 0 -65 -4 -70 -16 -3 -9 -6 -60 -6 -114 0 -104 -10 -130 -50
-130 -41 0 -50 25 -50 146 0 95 -3 114 -15 114 -12 0 -15 -18 -15 -104 0 -140
19 -185 78 -186 62 -1 82 42 82 176 0 91 1 94 25 100 55 14 55 15 55 -240 l0
-235 -26 -20 c-26 -20 -38 -21 -338 -21 -231 0 -317 4 -336 13 l-25 13 -3 247
-2 248 37 -3 38 -3 3 -75 c3 -100 7 -115 37 -128 36 -17 52 -15 75 8 17 17 20
33 20 116 0 72 -3 95 -12 92 -9 -3 -13 -31 -14 -86 -2 -95 -7 -112 -32 -112
-32 0 -42 22 -42 90 0 108 -2 110 -76 110 l-64 0 0 -35 c0 -24 -5 -35 -14 -35
-21 0 -46 28 -46 51 0 10 -7 19 -15 19 -8 0 -15 -7 -15 -16z"/>
<path d="M2052 8208 c6 -57 24 -78 68 -78 39 0 60 29 60 83 0 45 -19 68 -21
27 -1 -11 -3 -24 -4 -30 -1 -5 -3 -17 -4 -25 0 -8 -10 -19 -20 -25 -28 -15
-51 12 -51 61 0 29 -4 39 -16 39 -14 0 -16 -9 -12 -52z"/>
<path d="M4347 8139 c116 -116 124 -121 154 -115 18 3 41 14 51 23 18 16 21
15 58 -23 l40 -39 -67 -67 -68 -67 -232 149 c-128 83 -238 150 -245 150 -8 0
-31 -18 -52 -39 l-39 -40 -28 21 c-51 38 -80 23 -222 -120 -118 -120 -127
-131 -127 -167 0 -32 7 -45 49 -86 78 -79 87 -76 250 85 123 122 135 138 135
170 0 20 -8 44 -19 56 -18 20 -18 21 15 55 19 19 37 35 40 35 4 0 111 -67 239
-150 128 -82 235 -150 239 -150 4 0 44 37 89 82 l83 82 -50 51 c-50 51 -51 51
-30 70 44 39 5 155 -52 155 -18 0 -16 -5 16 -40 20 -22 36 -47 36 -56 0 -23
-93 -114 -116 -114 -11 0 -64 45 -124 105 -64 65 -112 105 -125 105 -15 0 13
-33 102 -121z m-410 -101 c24 -23 43 -51 43 -62 0 -13 -48 -69 -127 -148 -149
-150 -158 -153 -222 -83 -22 24 -41 52 -41 62 0 9 58 75 128 145 93 93 134
128 152 128 15 0 41 -16 67 -42z"/>
<path d="M5750 8245 c0 -34 31 -76 60 -82 l30 -5 0 -200 c0 -198 0 -199 25
-223 l24 -25 344 0 344 0 24 26 c23 25 24 30 27 225 3 168 5 199 18 199 24 0
64 47 64 75 0 34 -12 31 -30 -8 -8 -17 -23 -33 -32 -35 -15 -3 -18 4 -18 32
l0 36 -64 0 c-49 0 -65 -4 -70 -16 -3 -9 -6 -60 -6 -114 0 -104 -10 -130 -50
-130 -41 0 -50 25 -50 146 0 95 -3 114 -15 114 -12 0 -15 -18 -15 -104 0 -56
5 -117 11 -134 12 -35 56 -57 94 -48 41 10 55 53 55 165 0 99 0 101 25 107 55
14 55 15 55 -240 l0 -235 -26 -20 c-26 -20 -38 -21 -338 -21 -231 0 -317 4
-336 13 l-25 13 -3 247 -2 248 37 -3 38 -3 3 -85 c2 -70 7 -89 24 -107 26 -28
62 -29 88 -3 17 17 20 33 20 115 0 57 -4 95 -10 95 -12 0 -12 3 -14 -97 -1
-90 -11 -109 -50 -99 -25 6 -26 9 -26 85 0 111 0 111 -76 111 l-64 0 0 -35 c0
-24 -5 -35 -14 -35 -21 0 -46 28 -46 51 0 10 -7 19 -15 19 -8 0 -15 -7 -15
-15z"/>
<path d="M6182 8208 c6 -57 24 -78 68 -78 39 0 60 29 60 83 0 60 -17 61 -26 2
-12 -83 -74 -78 -74 6 0 29 -4 39 -16 39 -14 0 -16 -9 -12 -52z"/>
<path d="M8116 8111 l-39 -40 -28 21 c-51 38 -80 23 -222 -120 -118 -120 -127
-131 -127 -167 0 -32 7 -45 49 -86 78 -79 87 -76 250 85 123 122 135 138 135
170 0 20 -8 44 -19 56 -19 21 -18 21 17 57 l36 36 46 -27 c36 -21 46 -24 46
-12 0 16 -70 66 -93 66 -7 0 -30 -18 -51 -39z m-49 -73 c24 -23 43 -51 43 -62
0 -13 -48 -69 -127 -148 -149 -150 -158 -153 -222 -83 -22 24 -41 52 -41 61 0
10 57 75 127 146 147 148 154 151 220 86z"/>
<path d="M942 7705 c-56 -12 -109 -28 -117 -35 -20 -17 -19 -41 9 -160 13 -55
21 -100 17 -98 -3 2 -38 37 -76 78 -78 84 -94 95 -127 86 -35 -9 -188 -160
-188 -185 0 -12 34 -58 79 -108 44 -48 78 -89 77 -90 -1 -1 -50 13 -110 32
-147 46 -145 47 -192 -101 -47 -152 -47 -153 83 -193 480 -149 536 -169 555
-195 15 -19 46 -34 129 -60 139 -44 150 -41 177 46 11 35 77 243 146 464 69
221 126 410 126 421 0 11 -8 27 -17 35 -18 15 -207 78 -236 78 -26 0 -45 -34
-76 -137 -18 -57 -34 -103 -36 -103 -2 0 -16 52 -30 115 -27 114 -40 137 -77
134 -7 -1 -59 -11 -116 -24z m175 -150 l32 -140 -74 -234 c-41 -128 -76 -236
-79 -238 -6 -7 -9 5 -86 351 -39 175 -70 328 -68 340 3 18 17 24 98 43 150 34
139 42 177 -122z m283 102 c75 -25 96 -36 98 -52 3 -22 -274 -914 -289 -929
-10 -11 -207 48 -227 68 -10 10 14 97 129 462 77 247 145 457 150 467 13 23
28 21 139 -16z m-661 -169 c143 -155 126 -121 182 -370 27 -123 52 -231 55
-240 3 -10 2 -18 -3 -18 -12 0 -477 510 -481 528 -5 18 146 161 171 162 10 0
44 -28 76 -62z m-190 -306 l114 -36 146 -158 c80 -87 147 -165 149 -172 2 -8
-2 -17 -7 -20 -16 -10 -632 186 -639 203 -4 12 27 124 59 210 11 27 8 27 178
-27z"/>
<path d="M1071 6874 c-12 -15 -21 -37 -21 -49 0 -38 37 -75 76 -75 45 0 74 29
74 75 0 72 -86 104 -129 49z m89 -14 c23 -23 25 -40 8 -62 -20 -24 -44 -28
-67 -12 -27 20 -27 59 1 78 29 20 34 20 58 -4z"/>
<path d="M3020 7710 c-11 -11 -20 -31 -20 -45 0 -24 -3 -25 -53 -25 -63 0 -85
-17 -94 -76 -4 -28 -20 -54 -55 -91 -55 -60 -104 -155 -114 -222 -10 -77 -12
-81 -50 -81 l-34 0 0 -80 0 -80 530 0 530 0 0 80 0 80 -29 0 c-36 0 -38 4 -51
72 -15 79 -63 171 -118 231 -39 41 -50 61 -55 97 -7 56 -26 70 -94 70 -52 0
-53 1 -53 28 0 50 -25 62 -128 62 -79 0 -95 -3 -112 -20z m210 -179 c4 -119 8
-166 18 -169 9 -3 12 26 12 123 l0 126 58 -3 57 -3 3 -168 c2 -128 5 -168 15
-164 8 2 14 38 17 107 l5 103 37 -41 c62 -68 108 -179 108 -259 0 -31 2 -33
35 -33 l35 0 0 -55 0 -55 -500 0 -500 0 0 55 0 55 33 0 33 0 10 68 c14 85 50
167 99 221 21 22 40 41 44 41 3 0 6 -46 6 -102 0 -72 4 -102 13 -105 9 -4 12
32 12 154 0 110 4 163 12 171 7 7 34 12 60 12 l48 0 0 -125 c0 -104 2 -125 15
-125 13 0 15 25 15 163 0 90 3 167 7 171 4 4 48 5 98 4 l90 -3 5 -164z"/>
<path d="M5072 7705 c-56 -12 -109 -28 -117 -35 -20 -17 -19 -37 8 -157 13
-57 21 -103 18 -102 -3 0 -37 36 -76 79 -71 80 -102 99 -135 84 -38 -19 -180
-162 -180 -183 0 -12 34 -59 81 -111 44 -49 79 -90 77 -90 -1 0 -52 16 -111
35 -148 46 -146 47 -192 -99 -37 -117 -38 -148 -7 -165 9 -4 152 -50 317 -101
259 -80 303 -97 325 -122 19 -22 52 -37 133 -63 131 -42 148 -38 170 32 104
320 277 885 277 900 0 11 -8 27 -17 35 -18 15 -207 78 -236 78 -26 0 -45 -34
-77 -138 -17 -57 -33 -102 -36 -100 -2 3 -15 54 -28 114 -25 108 -40 135 -75
133 -9 -1 -62 -11 -119 -24z m175 -150 l32 -140 -74 -234 c-41 -128 -76 -236
-79 -238 -6 -7 -9 5 -86 351 -39 175 -70 328 -68 340 3 18 17 24 98 43 150 34
139 42 177 -122z m283 102 c74 -25 96 -36 98 -52 1 -11 -42 -162 -96 -335 -55
-173 -119 -377 -143 -454 -24 -76 -49 -140 -56 -143 -15 -6 -203 55 -221 71
-10 10 15 100 129 462 77 247 145 457 150 467 13 23 28 21 139 -16z m-661
-169 c143 -155 126 -121 182 -370 27 -123 52 -231 55 -240 3 -10 2 -18 -3 -18
-12 0 -477 510 -481 527 -5 18 147 162 171 163 10 0 44 -28 76 -62z m-214
-298 c75 -24 139 -50 153 -63 52 -49 277 -299 280 -312 2 -7 -2 -16 -7 -19
-16 -10 -632 186 -639 203 -3 7 7 53 23 100 38 118 43 131 53 131 4 0 66 -18
137 -40z"/>
<path d="M5201 6874 c-12 -15 -21 -37 -21 -49 0 -38 37 -75 76 -75 45 0 74 29
74 75 0 72 -86 104 -129 49z m89 -14 c23 -23 25 -40 8 -62 -20 -24 -44 -28
-67 -12 -27 20 -27 59 1 78 29 20 34 20 58 -4z"/>
<path d="M7150 7710 c-11 -11 -20 -31 -20 -45 0 -24 -3 -25 -53 -25 -63 0 -85
-17 -94 -76 -4 -28 -20 -54 -55 -91 -55 -60 -104 -155 -114 -222 -10 -77 -12
-81 -50 -81 l-34 0 0 -80 0 -80 530 0 531 0 -3 83 -3 82 -32 -3 c-31 -3 -32
-2 -39 45 -15 104 -65 202 -138 272 -29 28 -36 42 -36 73 0 56 -26 78 -95 78
-54 0 -55 1 -55 28 0 50 -25 62 -128 62 -79 0 -95 -3 -112 -20z m210 -179 c4
-119 8 -166 18 -169 9 -3 12 26 12 123 l0 126 58 -3 57 -3 3 -168 c2 -128 5
-168 15 -164 8 2 13 36 15 105 1 56 5 102 7 102 12 0 66 -69 91 -114 30 -54
54 -135 54 -183 0 -31 2 -33 35 -33 l35 0 0 -55 0 -55 -500 0 -500 0 0 55 0
55 33 0 33 0 10 68 c14 85 50 167 99 221 21 22 40 41 44 41 3 0 6 -46 6 -102
0 -72 4 -102 13 -105 9 -4 12 32 12 154 0 110 4 163 12 171 7 7 34 12 60 12
l48 0 0 -125 c0 -104 2 -125 15 -125 13 0 15 25 15 163 0 90 3 167 7 171 4 4
48 5 98 4 l90 -3 5 -164z"/>
<path d="M1596 6691 l-59 -60 87 -117 88 -116 42 41 41 40 182 -181 182 -181
-24 -19 c-32 -25 -31 -38 4 -72 25 -24 28 -31 18 -47 -10 -17 3 -34 113 -145
69 -69 137 -132 152 -140 72 -38 165 -4 194 72 28 74 15 99 -141 254 -116 116
-138 133 -153 123 -14 -9 -23 -6 -49 20 l-33 31 -30 -29 -31 -29 -182 182
-181 182 37 38 c20 21 37 41 37 44 0 8 -217 168 -228 168 -4 0 -34 -27 -66
-59z m212 -76 c23 -16 42 -32 42 -35 0 -3 -30 -36 -68 -73 l-67 -67 -68 90
c-37 49 -67 93 -67 97 0 4 19 26 42 50 l41 42 51 -37 c29 -20 70 -50 94 -67z
m457 -485 c19 -21 18 -22 -28 -67 -45 -46 -46 -47 -67 -28 -11 10 -20 22 -20
26 0 9 81 88 91 89 3 0 14 -9 24 -20z m335 -311 c0 -78 -77 -135 -146 -109
-16 6 -84 66 -151 133 l-123 121 77 78 78 79 133 -134 c118 -119 132 -137 132
-168z"/>
<path d="M2095 6728 c-60 -11 -114 -24 -120 -29 -6 -6 26 -45 88 -107 l97 -98
-55 -54 c-30 -30 -55 -58 -55 -62 0 -20 29 -4 77 44 l53 53 52 -53 53 -52 -48
-48 c-26 -26 -47 -51 -47 -55 0 -19 30 -3 70 38 l44 45 78 -77 78 -78 87 87
87 87 -77 77 -77 77 36 40 36 40 -71 71 -71 70 -41 -39 -41 -40 -38 43 c-43
48 -38 47 -195 20z m323 -189 l171 -176 -65 -64 -65 -64 -218 225 c-121 124
-218 226 -218 226 6 6 177 32 198 31 20 -2 68 -45 197 -178z m47 111 l49 -50
-24 -25 c-13 -14 -28 -25 -35 -25 -6 0 -33 22 -59 49 l-49 50 29 25 c16 14 31
26 34 26 3 0 28 -22 55 -50z"/>
<path d="M5726 6691 l-59 -60 87 -117 88 -116 42 41 41 40 182 -181 182 -181
-24 -19 c-32 -25 -31 -38 4 -72 25 -24 28 -31 18 -47 -10 -17 3 -34 113 -145
69 -69 137 -132 152 -140 72 -38 165 -4 194 72 28 74 15 99 -141 254 -116 116
-138 133 -153 123 -14 -9 -23 -6 -49 20 l-33 31 -30 -29 -30 -29 -182 182
-183 181 38 39 c20 21 37 41 37 44 0 8 -216 168 -227 168 -5 0 -35 -27 -67
-59z m212 -76 c23 -16 42 -32 42 -35 0 -3 -30 -36 -67 -72 l-68 -67 -67 89
c-38 49 -68 92 -68 96 0 5 19 27 42 51 l41 42 51 -37 c29 -20 70 -50 94 -67z
m457 -485 c19 -21 18 -22 -28 -68 l-47 -47 -22 23 -22 22 44 45 c24 25 47 45
51 45 3 0 14 -9 24 -20z m335 -309 c0 -60 -40 -108 -95 -113 -56 -4 -70 5
-196 129 l-130 127 78 78 78 79 133 -134 c115 -116 132 -138 132 -166z"/>
<path d="M6230 6728 c-63 -10 -119 -23 -124 -28 -6 -6 29 -48 87 -108 l97 -98
-55 -54 c-30 -30 -55 -58 -55 -62 0 -22 32 -2 79 47 l52 55 49 -51 c28 -29 50
-55 50 -58 0 -4 -20 -27 -45 -51 -25 -24 -45 -48 -45 -52 0 -20 30 -4 70 37
l44 45 79 -77 78 -76 85 84 84 84 -77 77 -76 77 37 42 38 42 -71 71 -71 70
-40 -39 -40 -39 -37 42 c-41 48 -34 47 -193 20z m314 -185 l176 -178 -65 -65
-65 -65 -220 220 c-121 121 -220 223 -220 226 0 6 152 35 197 38 15 1 71 -49
197 -176z m51 107 l49 -50 -24 -25 c-13 -14 -28 -25 -35 -25 -6 0 -33 22 -59
49 l-49 50 29 25 c16 14 31 26 34 26 3 0 28 -22 55 -50z"/>
<path d="M0 6666 c0 -14 15 -16 99 -16 92 0 102 -2 130 -25 32 -27 57 -86 47
-111 -9 -23 -62 -15 -58 9 2 10 -4 29 -13 43 -15 23 -21 24 -110 24 -57 0 -95
-4 -95 -10 0 -6 34 -10 83 -10 88 0 107 -8 107 -46 0 -18 -6 -23 -32 -26 -31
-3 -33 -6 -36 -45 l-3 -43 -60 0 c-33 0 -59 -4 -59 -10 0 -6 90 -10 250 -10
307 0 290 8 290 -138 0 -128 -4 -132 -123 -132 l-87 0 0 40 0 40 -85 0 -85 0
0 -40 0 -40 -80 0 c-64 0 -80 -3 -80 -15 0 -12 15 -15 79 -15 l80 0 3 -42 3
-43 80 0 80 0 3 43 3 42 60 0 59 0 0 -183 c0 -165 -2 -186 -18 -200 -16 -15
-47 -17 -225 -17 -182 0 -207 -2 -207 -16 0 -14 25 -15 216 -12 l216 3 24 28
c23 28 24 32 24 213 0 171 1 184 18 184 10 0 28 10 40 23 20 21 22 34 22 140
0 149 -6 157 -114 157 l-75 0 -3 43 c-3 39 -5 42 -34 45 -30 3 -32 6 -36 53
-4 42 -12 58 -42 87 l-36 37 -110 3 c-95 3 -110 2 -110 -12z m335 -221 l0 -30
-90 0 c-79 0 -90 2 -93 18 -8 43 3 48 95 45 l88 -3 0 -30z m-35 -340 l0 -75
-55 0 -55 0 0 75 0 75 55 0 55 0 0 -75z"/>
<path d="M3970 6662 c-49 -27 -74 -75 -79 -149 -1 -7 -14 -13 -30 -13 -28 0
-30 -3 -33 -42 l-3 -43 -76 -3 c-106 -4 -113 -13 -117 -147 -4 -121 10 -162
58 -172 l30 -5 0 -189 c0 -174 2 -191 19 -208 11 -11 35 -23 53 -26 18 -3 199
-5 401 -3 l369 3 24 28 c23 28 24 32 24 213 0 149 3 184 14 184 7 0 25 9 40
21 25 20 26 23 26 140 0 152 -5 159 -114 159 l-75 0 -3 43 c-3 39 -5 42 -34
45 -30 3 -32 6 -36 53 -4 42 -12 58 -42 87 l-36 37 -173 3 c-153 2 -176 1
-207 -16z m389 -37 c31 -27 57 -86 47 -110 -3 -8 -17 -15 -31 -15 -19 0 -25 5
-25 23 0 12 -7 33 -16 45 -15 21 -21 22 -169 22 -170 0 -185 -5 -185 -61 0
-26 -3 -29 -30 -29 -25 0 -30 4 -30 24 0 39 19 79 48 103 26 22 36 23 194 23
164 0 167 0 197 -25z m-51 -67 c7 -7 12 -22 12 -34 0 -18 -6 -23 -32 -26 -31
-3 -33 -6 -36 -46 l-3 -43 -87 3 -87 3 -3 43 c-3 39 -5 42 -33 42 -25 0 -29 4
-29 29 0 16 6 32 13 34 27 12 273 7 285 -5z m88 -88 l75 0 -3 -27 -3 -28 -90
0 c-79 0 -90 2 -93 18 -6 28 6 50 24 43 9 -3 49 -6 90 -6z m-348 -27 l-3 -28
-90 0 -90 0 -3 28 -3 27 96 0 96 0 -3 -27z m602 -73 c17 -17 20 -33 20 -113 0
-131 -5 -137 -121 -137 l-89 0 0 40 0 40 -85 0 -85 0 0 -40 0 -40 -130 0 -130
0 0 40 0 40 -70 0 c-38 0 -73 1 -77 3 -5 1 -9 -17 -11 -40 l-3 -43 -94 0
c-115 0 -115 0 -115 139 0 92 2 101 22 115 20 14 83 16 485 16 450 0 464 -1
483 -20z m-645 -265 l0 -70 -52 -3 -53 -3 0 76 0 76 53 -3 52 -3 0 -70z m425
0 l0 -75 -55 0 -55 0 0 75 0 75 55 0 55 0 0 -75z m-558 -57 l3 -43 75 0 75 0
3 43 3 42 129 0 129 0 3 -42 3 -43 80 0 80 0 3 43 3 42 60 0 59 0 0 -182 c0
-155 -2 -184 -17 -200 -15 -17 -41 -18 -395 -18 -242 0 -386 4 -399 10 -18 10
-19 23 -19 200 l0 190 59 0 60 0 3 -42z"/>
<path d="M8101 6663 c-41 -20 -67 -61 -76 -119 -6 -41 -9 -44 -36 -44 -28 0
-29 -2 -29 -45 l0 -45 -78 0 c-109 0 -116 -9 -120 -145 -4 -121 10 -162 58
-172 l30 -5 0 -185 c0 -101 4 -193 10 -203 17 -31 67 -40 236 -40 139 0 164 2
164 15 0 13 -26 15 -171 15 -98 0 -178 4 -190 10 -18 10 -19 23 -19 200 l0
190 59 0 60 0 3 -42 3 -43 75 0 75 0 3 43 3 42 50 0 c37 0 49 4 49 15 0 11
-12 15 -50 15 l-50 0 0 40 0 40 -70 0 c-38 0 -73 1 -77 3 -5 1 -9 -17 -11 -40
l-3 -43 -94 0 c-115 0 -115 0 -115 139 0 137 -12 131 257 131 185 0 213 2 213
15 0 11 -8 15 -27 13 -26 -3 -28 0 -31 40 -3 39 -5 42 -33 42 -25 0 -29 4 -29
29 0 34 14 41 76 41 24 0 44 5 44 10 0 6 -26 10 -59 10 -68 0 -91 -15 -91 -61
0 -26 -3 -29 -30 -29 -25 0 -30 4 -30 25 0 40 25 89 53 108 18 12 47 17 92 17
51 0 65 3 65 15 0 22 -114 20 -159 -2z m77 -224 c-3 -23 -6 -24 -93 -24 l-90
0 -3 27 -3 27 88 3 c48 2 92 0 96 -3 5 -4 7 -17 5 -30z m-40 -336 l3 -73 -56
0 -55 0 0 76 0 75 53 -3 52 -3 3 -72z"/>
<path d="M1692 6027 c-111 -111 -202 -207 -202 -212 0 -13 122 -135 135 -135
15 0 415 403 415 418 0 6 -3 12 -8 12 -4 0 -95 -88 -202 -195 -107 -107 -200
-195 -205 -195 -6 0 -32 22 -58 48 l-47 48 195 194 c173 173 214 220 187 220
-4 0 -98 -91 -210 -203z"/>
<path d="M5822 6027 c-111 -111 -202 -207 -202 -212 0 -13 122 -135 135 -135
15 0 415 403 415 418 0 6 -3 12 -8 12 -4 0 -95 -88 -202 -195 -107 -107 -200
-195 -205 -195 -6 0 -32 22 -58 48 l-48 48 198 197 c133 132 194 200 188 206
-7 7 -77 -56 -213 -192z"/>
<path d="M624 5448 c-115 -227 -212 -421 -216 -430 -6 -14 62 -52 415 -230
232 -117 428 -214 434 -216 7 -2 13 1 13 6 0 11 -408 1261 -416 1273 -3 5 -9
9 -13 9 -5 0 -102 -186 -217 -412z m269 205 c26 -82 112 -346 192 -588 79
-241 143 -441 141 -443 -2 -1 -29 9 -59 24 -48 24 -54 30 -46 46 16 29 -1 44
-20 19 -15 -20 -20 -21 -44 -10 -24 11 -27 17 -22 41 8 33 -9 38 -25 8 -10
-19 -13 -19 -41 -5 -24 13 -28 19 -19 35 14 26 -7 38 -25 14 -11 -16 -17 -16
-39 -6 -22 10 -25 16 -20 37 7 29 -12 35 -31 9 -10 -14 -15 -15 -36 -4 -33 17
-32 16 -20 39 15 27 -4 37 -22 11 -13 -18 -18 -19 -41 -9 -23 11 -26 17 -21
41 7 31 -8 38 -23 11 -8 -14 -14 -15 -41 -3 -35 14 -35 14 -21 41 8 15 7 19
-4 19 -8 0 -19 -7 -24 -16 -7 -13 -13 -13 -36 -3 -23 11 -26 17 -21 41 8 33
-9 38 -25 8 -9 -17 -14 -18 -33 -9 -12 7 -24 13 -26 15 -5 4 392 784 400 784
3 0 27 -66 52 -147z"/>
<path d="M716 5342 c-52 -103 -104 -205 -115 -225 -12 -21 -21 -43 -21 -50 0
-14 456 -244 466 -235 8 8 -213 685 -226 693 -5 3 -52 -79 -104 -183z m199
-169 c52 -160 95 -293 95 -297 0 -3 -90 39 -200 94 l-200 100 101 201 c55 111
102 199 104 197 2 -2 47 -135 100 -295z"/>
<path d="M4764 5468 c-109 -216 -206 -410 -216 -430 l-17 -38 367 -184 c202
-102 395 -200 429 -218 34 -18 65 -29 69 -26 3 4 -82 278 -191 610 -109 332
-202 620 -207 641 -6 20 -16 37 -23 37 -7 0 -102 -177 -211 -392z m259 185
c26 -82 112 -346 192 -588 79 -241 143 -441 141 -443 -2 -1 -29 9 -59 24 -48
24 -54 30 -46 46 16 29 -1 44 -20 19 -15 -20 -20 -21 -44 -10 -24 11 -27 17
-22 41 8 33 -9 38 -25 8 -10 -19 -13 -19 -41 -5 -24 13 -28 19 -19 35 13 24
13 30 -1 30 -7 0 -17 -8 -24 -17 -11 -15 -17 -15 -39 -5 -22 10 -25 16 -20 37
7 29 -12 35 -31 9 -10 -14 -15 -15 -36 -4 -33 17 -32 16 -20 39 8 14 8 22 -1
27 -6 4 -13 3 -15 -2 -11 -31 -20 -35 -47 -23 -23 11 -26 17 -21 41 7 31 -8
38 -23 11 -8 -14 -14 -15 -41 -3 -35 14 -35 14 -21 41 8 15 7 19 -4 19 -8 0
-19 -7 -24 -16 -7 -13 -13 -13 -36 -3 -23 11 -26 17 -21 41 8 33 -9 38 -25 8
-9 -17 -14 -18 -33 -9 -12 7 -24 13 -26 15 -5 4 392 784 400 784 3 0 27 -66
52 -147z"/>
<path d="M4826 5303 c-64 -126 -116 -233 -116 -238 0 -13 457 -241 466 -233 8
8 -212 685 -225 693 -6 3 -62 -97 -125 -222z m218 -129 c53 -160 96 -294 96
-298 0 -3 -90 39 -200 94 l-200 100 101 201 c55 111 102 200 104 197 2 -2 47
-134 99 -294z"/>
<path d="M2968 5637 c-267 -89 -490 -166 -494 -170 -9 -9 313 -987 324 -987
28 0 672 224 672 234 0 26 -67 210 -78 214 -18 6 -15 -16 18 -113 16 -49 28
-90 27 -92 -3 -2 -618 -213 -624 -213 -4 0 -95 282 -92 284 5 4 366 126 372
126 3 0 13 -24 23 -52 22 -69 33 -90 44 -83 11 7 -41 165 -55 165 -6 0 -97
-29 -203 -64 -133 -45 -194 -61 -198 -53 -45 121 -202 613 -196 618 15 14 196
69 203 61 3 -4 32 -86 64 -182 32 -96 61 -179 66 -184 26 -29 12 40 -41 199
-33 98 -57 182 -52 186 10 9 675 229 693 229 9 0 32 -55 68 -163 30 -89 56
-167 58 -172 4 -13 -286 -110 -297 -99 -4 5 -18 41 -30 79 -24 75 -34 93 -44
77 -3 -5 6 -42 19 -83 14 -40 25 -78 25 -84 0 -6 -48 -27 -107 -46 -59 -20
-109 -41 -111 -47 -6 -19 16 -15 126 22 118 40 104 48 146 -81 15 -46 31 -85
36 -88 22 -14 17 22 -15 112 -19 54 -35 99 -35 100 0 1 70 25 155 53 85 28
157 55 160 59 6 10 -124 401 -133 401 -4 -1 -226 -74 -494 -163z"/>
<path d="M7098 5637 c-267 -89 -490 -166 -494 -170 -9 -9 313 -987 324 -987
28 0 672 224 672 234 0 26 -67 210 -78 214 -18 6 -15 -16 18 -113 16 -49 29
-90 27 -91 -3 -3 -618 -214 -623 -214 -5 0 -96 281 -93 284 4 3 369 126 375
126 1 0 10 -24 20 -52 22 -69 33 -90 44 -83 11 7 -41 165 -55 165 -6 0 -97
-29 -203 -64 -133 -45 -194 -61 -198 -53 -45 121 -202 613 -196 618 15 14 196
69 203 61 3 -4 32 -86 64 -182 32 -96 61 -179 66 -184 26 -29 12 40 -41 199
-33 98 -57 182 -52 186 10 9 674 229 692 229 10 0 31 -49 69 -163 30 -89 55
-167 58 -172 4 -13 -286 -110 -297 -99 -4 5 -18 41 -30 79 -24 75 -34 93 -44
77 -3 -5 6 -42 19 -83 14 -40 25 -78 25 -84 0 -7 -46 -27 -102 -45 -105 -33
-127 -44 -114 -57 5 -5 141 33 221 64 6 2 21 -29 34 -69 36 -114 50 -143 62
-131 7 7 -2 42 -26 109 -19 54 -35 100 -35 101 0 1 70 25 155 53 85 28 157 55
160 59 6 10 -124 401 -133 401 -4 -1 -226 -74 -494 -163z"/>
<path d="M1106 5774 c-52 -19 -66 -32 -66 -62 0 -13 59 -204 130 -423 l131
-398 65 -47 c36 -26 67 -44 70 -42 2 3 15 38 29 78 l25 73 -131 401 c-72 220
-138 409 -147 419 -18 20 -53 21 -106 1z m100 -50 c8 -18 14 -39 14 -47 0 -16
-118 -53 -129 -41 -18 20 -31 78 -21 88 15 15 103 45 114 38 4 -2 14 -19 22
-38z m128 -385 c54 -165 96 -303 93 -305 -11 -11 -122 -42 -128 -36 -10 10
-201 593 -196 598 5 6 109 42 123 43 6 1 54 -134 108 -300z m117 -355 c7 -20
5 -40 -7 -78 -9 -28 -18 -54 -21 -58 -7 -14 -103 64 -109 88 -4 14 -5 26 -3
28 3 2 107 40 127 45 1 1 7 -11 13 -25z"/>
<path d="M5236 5774 c-52 -19 -66 -32 -66 -62 0 -14 59 -204 130 -423 l130
-397 66 -47 c36 -26 67 -45 70 -43 2 3 15 38 29 78 l25 73 -131 401 c-73 220
-139 409 -147 419 -18 20 -53 21 -106 1z m100 -50 c8 -18 14 -40 14 -47 0 -17
-117 -54 -129 -41 -18 20 -31 78 -21 88 15 15 103 45 114 38 4 -2 14 -19 22
-38z m128 -384 c54 -166 96 -303 93 -306 -11 -11 -122 -42 -128 -36 -10 10
-201 593 -196 598 5 6 109 42 123 43 6 1 54 -134 108 -299z m117 -356 c7 -20
5 -40 -7 -78 -9 -28 -18 -54 -21 -58 -7 -14 -103 64 -109 88 -4 14 -5 26 -3
28 3 2 107 40 127 45 1 1 7 -11 13 -25z"/>
<path d="M2001 4709 c-74 -14 -168 -65 -230 -124 -104 -99 -151 -220 -151
-393 0 -110 15 -149 60 -159 l30 -5 0 -200 c0 -198 0 -199 25 -223 l24 -25
344 0 344 0 24 26 c23 25 24 30 27 225 3 168 5 199 18 199 8 0 26 11 39 25 24
23 25 30 25 138 0 136 -20 213 -78 303 -112 171 -302 252 -501 213z m281 -56
c116 -54 206 -155 248 -279 30 -84 39 -254 16 -288 -32 -50 -44 -34 -48 70 -3
91 -5 97 -31 120 l-28 24 -330 0 c-419 0 -399 8 -399 -151 0 -70 -3 -89 -14
-89 -37 0 -46 28 -46 140 0 168 42 273 149 373 92 86 181 117 321 114 83 -2
104 -7 162 -34z m172 -405 c9 -12 16 -42 16 -65 l0 -43 -45 0 c-59 0 -65 -14
-65 -139 0 -105 -10 -131 -50 -131 -42 0 -50 25 -50 150 0 116 -1 120 -25 136
-46 30 -85 -8 -85 -81 0 -24 -6 -38 -19 -45 -29 -15 -51 12 -51 64 0 56 -30
96 -71 96 -69 0 -89 -38 -89 -166 0 -72 -2 -83 -19 -89 -41 -13 -49 2 -53 95
-1 49 -8 94 -14 100 -6 7 -30 14 -53 17 -41 6 -41 6 -41 49 0 76 -11 74 365
74 334 0 334 0 349 -22z m-416 -100 c5 -7 12 -37 14 -67 6 -60 24 -81 68 -81
38 0 58 28 62 85 3 42 6 50 23 50 19 0 20 -9 26 -125 3 -69 7 -126 8 -127 12
-19 50 -43 67 -43 66 0 84 37 84 169 0 99 0 101 25 107 55 14 55 15 55 -240
l0 -235 -26 -20 c-26 -20 -38 -21 -338 -21 -231 0 -317 4 -336 13 l-25 13 -3
247 -2 248 37 -3 38 -3 5 -92 c3 -51 10 -97 15 -102 6 -6 25 -13 42 -17 24 -5
36 -1 52 15 18 18 21 33 21 112 0 50 5 99 10 110 12 22 62 26 78 7z"/>
<path d="M6131 4709 c-74 -14 -168 -65 -230 -124 -104 -99 -151 -220 -151
-393 0 -110 15 -149 60 -159 l30 -5 0 -200 c0 -198 0 -199 25 -223 l24 -25
344 0 344 0 24 26 c23 25 24 30 27 225 3 168 5 199 18 199 8 0 26 11 39 25 24
23 25 30 25 138 0 136 -20 213 -78 303 -112 171 -302 252 -501 213z m281 -56
c116 -54 206 -155 248 -279 30 -84 39 -254 16 -288 -32 -50 -44 -34 -48 70 -3
91 -5 97 -31 120 l-28 24 -330 0 c-419 0 -399 8 -399 -151 0 -70 -3 -89 -14
-89 -37 0 -46 28 -46 139 0 163 30 246 124 348 96 104 195 144 346 140 83 -2
104 -7 162 -34z m173 -407 c10 -15 15 -40 13 -63 -3 -37 -4 -38 -43 -41 -58
-4 -65 -20 -65 -138 0 -108 -10 -134 -50 -134 -42 0 -50 25 -50 150 0 116 -1
120 -25 136 -46 30 -85 -8 -85 -81 0 -24 -6 -38 -19 -45 -29 -15 -51 12 -51
64 0 56 -30 96 -71 96 -69 0 -90 -40 -86 -163 2 -83 -6 -100 -48 -95 -18 3
-21 13 -25 95 -3 51 -10 97 -16 103 -7 7 -30 14 -53 17 -41 6 -41 6 -41 49 0
76 -11 74 365 74 l335 0 15 -24z m-407 -137 c6 -79 25 -109 69 -109 40 0 63
27 63 74 0 49 12 71 34 63 13 -5 16 -24 16 -111 0 -139 19 -185 77 -186 64 -1
83 37 83 169 0 99 0 101 25 107 55 14 55 15 55 -240 l0 -235 -26 -20 c-26 -20
-38 -21 -338 -21 -231 0 -317 4 -336 13 l-25 13 -3 247 -2 248 37 -3 38 -3 3
-75 c3 -100 7 -115 37 -128 36 -17 52 -15 75 8 17 17 20 33 20 113 0 93 8 119
40 130 26 9 55 -18 58 -54z"/>
<path d="M3901 4616 c-42 -42 -59 -66 -51 -71 7 -4 23 4 39 19 l27 26 22 -22
c21 -23 21 -23 2 -48 -45 -58 -43 -62 254 -359 268 -268 275 -274 307 -267 18
3 41 14 51 23 18 16 21 15 58 -23 l40 -39 -67 -67 -68 -67 -230 149 c-126 82
-237 149 -245 150 -9 0 -33 -18 -55 -40 l-38 -39 -25 19 c-53 43 -75 32 -219
-113 -125 -124 -133 -135 -133 -171 0 -33 7 -46 49 -87 78 -79 87 -76 250 85
123 122 135 138 135 170 0 20 -8 44 -19 56 -18 20 -18 21 15 55 19 20 40 33
48 30 7 -3 115 -70 238 -150 124 -80 229 -145 232 -145 4 0 44 37 89 82 l83
82 -50 51 c-50 51 -51 51 -30 70 14 12 20 31 20 59 0 39 -6 46 -262 303 -181
182 -270 264 -290 268 -20 5 -40 0 -65 -15 l-36 -21 -21 20 -20 21 27 28 c30
31 34 42 14 42 -7 0 -41 -29 -76 -64z m446 -299 c145 -144 263 -270 263 -280
0 -24 -77 -106 -108 -114 -21 -5 -54 24 -288 258 -198 198 -264 270 -264 288
0 32 79 111 111 111 18 0 91 -67 286 -263z m-410 -409 c24 -23 43 -51 43 -62
0 -13 -48 -69 -127 -148 -149 -150 -158 -153 -222 -83 -22 24 -41 52 -41 61 0
10 57 75 127 146 147 148 154 151 220 86z"/>
<path d="M8031 4616 c-42 -42 -59 -66 -51 -71 7 -4 23 4 39 19 l27 26 22 -22
c21 -23 21 -23 2 -48 -39 -51 -29 -74 83 -187 74 -75 103 -100 105 -87 3 10
-29 50 -87 108 -63 63 -91 99 -91 115 0 29 79 111 107 111 11 0 32 -9 47 -21
25 -20 26 -20 26 -1 0 45 -64 63 -116 32 l-37 -21 -21 20 -20 21 27 28 c30 31
34 42 14 42 -7 0 -41 -29 -76 -64z"/>
<path d="M0 4555 c0 -12 89 -108 240 -260 132 -133 240 -249 240 -258 0 -26
-89 -117 -114 -117 -14 0 -79 59 -193 172 -124 124 -173 167 -173 153 0 -13
61 -82 170 -189 163 -162 170 -168 201 -162 18 3 41 14 51 23 17 16 21 14 58
-22 l40 -39 -67 -68 c-66 -67 -67 -67 -92 -51 -267 175 -361 231 -361 215 0
-11 64 -58 187 -137 103 -66 191 -122 196 -124 5 -2 47 34 93 80 l84 83 -50
51 c-50 51 -51 51 -30 70 14 12 20 31 20 59 0 39 -6 46 -250 291 -171 171
-250 244 -250 230z"/>
<path d="M8115 3980 l-38 -39 -25 19 c-53 43 -75 32 -219 -113 -125 -124 -133
-135 -133 -171 0 -33 7 -46 49 -87 78 -79 87 -76 250 85 123 122 135 138 135
170 0 20 -8 44 -19 56 -19 21 -18 21 17 57 l36 36 46 -27 c36 -21 46 -24 46
-12 0 16 -70 66 -93 66 -7 0 -30 -18 -52 -40z m-48 -72 c24 -23 43 -51 43 -62
0 -13 -48 -69 -127 -148 -149 -150 -158 -153 -222 -83 -22 24 -41 52 -41 62 0
9 58 75 128 145 93 93 134 128 152 128 15 0 41 -16 67 -42z"/>
<path d="M941 3574 c-57 -13 -110 -29 -117 -35 -19 -15 -17 -37 10 -157 13
-56 20 -101 17 -100 -4 2 -38 37 -76 78 -78 84 -94 95 -127 86 -35 -9 -188
-160 -188 -185 0 -12 35 -59 81 -111 44 -49 79 -90 77 -90 -1 0 -52 16 -111
35 -148 46 -146 47 -193 -101 -47 -152 -47 -153 83 -193 480 -149 536 -169
556 -195 14 -20 45 -34 132 -62 137 -43 145 -41 174 48 96 299 271 869 271
885 0 11 -8 27 -17 35 -18 15 -208 78 -235 78 -27 0 -46 -34 -78 -138 -17 -57
-33 -102 -36 -100 -2 3 -15 54 -28 114 -25 108 -40 135 -75 133 -9 0 -63 -12
-120 -25z m176 -149 l31 -139 -70 -226 c-39 -124 -74 -232 -78 -240 -8 -13 -9
-13 -13 0 -18 55 -147 667 -145 684 3 18 17 24 98 43 150 34 139 42 177 -122z
m276 104 c56 -17 101 -37 104 -45 7 -19 12 -2 -149 -514 -71 -228 -134 -419
-139 -424 -10 -11 -214 51 -230 70 -6 7 40 166 132 460 78 247 145 457 150
467 13 23 19 22 132 -14z m-654 -171 c145 -157 127 -120 186 -385 29 -131 51
-240 48 -243 -3 -3 -24 16 -47 41 -22 26 -130 144 -238 262 -109 118 -198 221
-198 228 0 18 152 158 173 159 10 0 44 -28 76 -62z m-190 -306 l114 -36 146
-158 c80 -87 147 -165 149 -172 2 -8 -2 -17 -7 -20 -16 -10 -632 186 -639 202
-5 13 40 174 61 215 10 22 13 22 176 -31z"/>
<path d="M1071 2744 c-12 -15 -21 -37 -21 -49 0 -38 37 -75 76 -75 45 0 74 29
74 75 0 72 -86 104 -129 49z m89 -14 c23 -23 25 -40 8 -62 -20 -24 -44 -28
-67 -12 -27 20 -27 59 1 78 29 20 34 20 58 -4z"/>
<path d="M3020 3580 c-11 -11 -20 -31 -20 -45 0 -24 -3 -25 -53 -25 -64 0 -86
-18 -91 -74 -2 -27 -16 -49 -55 -91 -58 -61 -107 -156 -117 -224 -10 -79 -12
-83 -47 -79 l-32 3 -3 -82 -3 -83 531 0 531 0 -3 83 -3 82 -27 -3 c-32 -4 -35
2 -48 70 -15 79 -63 171 -118 231 -39 41 -50 61 -55 97 -7 56 -26 70 -94 70
-52 0 -53 1 -53 28 0 50 -25 62 -128 62 -79 0 -95 -3 -112 -20z m210 -179 c4
-119 8 -166 18 -169 9 -3 12 26 12 123 l0 126 58 -3 57 -3 3 -168 c2 -128 5
-168 15 -164 8 2 13 36 15 105 1 56 5 102 7 102 3 0 19 -15 35 -32 49 -53 99
-165 106 -235 l7 -63 33 0 34 0 0 -55 0 -55 -500 0 -500 0 0 55 0 55 33 0 33
0 10 68 c14 85 50 167 99 221 21 22 40 41 44 41 3 0 6 -46 6 -102 0 -72 4
-102 13 -105 9 -4 12 32 12 154 0 110 4 163 12 171 7 7 34 12 60 12 l48 0 0
-125 c0 -104 2 -125 15 -125 13 0 15 25 15 163 0 90 3 167 7 171 4 4 48 5 98
4 l90 -3 5 -164z"/>
<path d="M5071 3574 c-57 -13 -110 -29 -117 -35 -19 -16 -17 -48 10 -162 13
-54 20 -96 17 -95 -4 2 -38 37 -76 78 -78 84 -94 95 -127 86 -35 -9 -188 -160
-188 -185 0 -12 35 -59 81 -111 44 -49 79 -90 77 -90 -1 0 -52 16 -111 35
-148 46 -146 47 -192 -100 -37 -117 -38 -148 -7 -164 9 -4 152 -50 317 -101
261 -81 303 -96 324 -121 18 -23 49 -37 137 -65 137 -42 145 -40 173 49 10 34
76 242 145 463 69 221 126 410 126 421 0 11 -8 27 -17 35 -18 15 -208 78 -235
78 -27 0 -46 -34 -77 -137 -18 -57 -34 -103 -36 -103 -2 0 -16 52 -30 115 -27
114 -40 137 -77 134 -7 0 -60 -12 -117 -25z m175 -150 l32 -141 -74 -233 c-40
-128 -76 -235 -79 -238 -7 -7 -8 -4 -85 350 -40 180 -70 335 -68 345 2 14 25
23 98 40 151 34 140 42 176 -123z m276 106 c52 -16 100 -36 105 -42 7 -9 -33
-151 -134 -473 -80 -253 -149 -464 -154 -469 -10 -11 -214 51 -229 70 -7 7 39
167 131 460 78 247 145 457 150 466 13 24 19 23 131 -12z m-654 -172 c142
-151 127 -121 183 -370 27 -123 52 -231 55 -240 3 -10 2 -18 -3 -18 -12 0
-477 510 -481 527 -4 18 146 162 170 163 9 0 43 -28 76 -62z m-189 -306 l114
-36 146 -158 c80 -87 147 -165 149 -172 2 -8 -2 -17 -7 -20 -16 -10 -632 186
-639 203 -4 12 27 124 59 210 11 27 8 27 178 -27z"/>
<path d="M5202 2747 c-45 -48 -11 -127 54 -127 45 0 74 29 74 75 0 69 -81 102
-128 52z m88 -17 c23 -23 25 -40 8 -62 -20 -24 -44 -28 -67 -12 -27 20 -27 59
1 78 29 20 34 20 58 -4z"/>
<path d="M7150 3580 c-11 -11 -20 -31 -20 -45 0 -24 -3 -25 -53 -25 -63 0 -85
-17 -94 -76 -4 -28 -20 -54 -55 -91 -55 -60 -104 -155 -114 -222 -10 -77 -12
-81 -50 -81 l-34 0 0 -80 0 -80 530 0 530 0 0 80 0 80 -34 0 c-34 0 -35 1 -42
48 -16 108 -62 199 -138 271 -29 28 -36 42 -36 73 0 56 -26 78 -95 78 -54 0
-55 1 -55 28 0 50 -25 62 -128 62 -79 0 -95 -3 -112 -20z m210 -179 c4 -119 8
-166 18 -169 9 -3 12 26 12 123 l0 126 58 -3 57 -3 3 -168 c2 -128 5 -168 15
-164 8 2 14 38 17 107 l5 103 39 -43 c52 -58 94 -152 102 -228 l7 -62 33 0 34
0 0 -55 0 -55 -500 0 -500 0 0 55 0 55 33 0 33 0 10 68 c14 85 50 167 99 221
21 22 40 41 44 41 3 0 6 -46 6 -102 0 -72 4 -102 13 -105 9 -4 12 32 12 154 0
110 4 163 12 171 7 7 34 12 60 12 l48 0 0 -125 c0 -104 2 -125 15 -125 13 0
15 25 15 163 0 90 3 167 7 171 4 4 48 5 98 4 l90 -3 5 -164z"/>
<path d="M1596 2561 l-59 -60 87 -117 88 -116 42 41 41 40 182 -181 182 -181
-24 -19 c-32 -25 -31 -38 4 -72 25 -24 28 -31 18 -47 -10 -17 3 -34 113 -145
69 -69 137 -132 152 -140 63 -33 156 -6 190 57 40 76 21 113 -141 274 -113
112 -134 128 -149 118 -14 -9 -23 -6 -49 20 l-33 31 -30 -29 -30 -29 -182 182
-183 181 38 39 c20 21 37 41 37 44 0 8 -217 168 -228 168 -4 0 -34 -27 -66
-59z m201 -69 c29 -20 53 -39 53 -42 0 -3 -30 -36 -68 -73 l-67 -67 -68 90
c-37 49 -67 93 -67 97 0 4 19 26 42 50 l41 42 41 -30 c23 -17 65 -47 93 -67z
m468 -492 c19 -21 18 -22 -28 -67 -45 -46 -46 -47 -67 -28 -11 10 -20 23 -20
29 0 10 79 85 91 86 3 0 14 -9 24 -20z m335 -309 c0 -60 -40 -108 -95 -113
-56 -4 -70 5 -196 129 l-130 127 78 78 78 79 133 -134 c115 -116 132 -138 132
-166z"/>
<path d="M2100 2598 c-63 -10 -119 -23 -124 -28 -6 -6 26 -46 87 -107 l97 -97
-55 -56 c-30 -31 -55 -59 -55 -63 0 -21 33 -1 78 47 l50 53 53 -53 53 -54 -47
-48 c-26 -26 -47 -51 -47 -55 0 -19 30 -3 70 38 l44 45 78 -77 78 -78 85 85
85 85 -77 77 -76 77 37 42 38 42 -71 71 -71 70 -41 -39 -41 -40 -38 43 c-43
47 -34 46 -190 20z m318 -189 l171 -176 -65 -64 -66 -64 -218 225 c-121 123
-218 225 -217 226 6 6 176 32 198 31 20 -2 68 -45 197 -178z m47 111 l49 -50
-24 -25 c-13 -14 -27 -25 -30 -25 -4 0 -30 23 -58 51 l-51 51 27 24 c15 13 29
24 32 24 3 0 28 -22 55 -50z"/>
<path d="M5726 2561 l-59 -60 87 -117 88 -116 42 41 41 40 182 -181 182 -181
-24 -19 c-32 -25 -31 -38 4 -72 25 -24 28 -31 18 -47 -10 -17 3 -34 113 -145
69 -69 137 -132 152 -140 66 -35 161 -5 192 60 36 77 18 112 -143 271 -113
112 -134 128 -149 118 -14 -9 -23 -6 -49 20 l-33 31 -30 -29 -31 -29 -182 182
-181 182 37 38 c20 21 37 41 37 44 0 8 -217 168 -228 168 -4 0 -34 -27 -66
-59z m201 -69 c29 -20 53 -39 53 -42 0 -3 -30 -36 -68 -73 l-67 -67 -68 90
c-37 49 -67 93 -67 97 0 4 19 26 42 50 l41 42 41 -30 c23 -17 65 -47 93 -67z
m468 -492 c19 -21 18 -22 -28 -67 -45 -46 -46 -47 -67 -28 -11 10 -20 23 -20
29 0 10 79 85 91 86 3 0 14 -9 24 -20z m335 -309 c0 -47 -24 -86 -65 -105 -62
-30 -86 -17 -228 122 l-128 126 78 78 78 79 133 -134 c115 -116 132 -138 132
-166z"/>
<path d="M6230 2598 c-63 -10 -119 -23 -124 -28 -6 -6 26 -46 87 -107 l97 -97
-55 -56 c-30 -31 -55 -59 -55 -63 0 -19 29 -2 77 45 l53 53 52 -53 53 -52 -48
-48 c-26 -26 -47 -51 -47 -55 0 -19 30 -3 70 38 l44 45 79 -77 78 -76 85 84
84 84 -77 77 -76 77 37 42 38 42 -71 71 -71 70 -40 -39 -40 -39 -36 42 c-41
48 -34 47 -194 20z m315 -185 l174 -178 -65 -65 -64 -65 -220 220 c-121 121
-220 223 -220 226 0 6 153 35 198 38 17 1 66 -44 197 -176z m50 107 l49 -50
-24 -25 c-13 -14 -27 -25 -32 -25 -4 0 -30 23 -58 51 l-50 50 28 24 c15 14 29
25 32 25 3 0 28 -22 55 -50z"/>
<path d="M0 2536 c0 -14 15 -16 99 -16 92 0 102 -2 130 -26 30 -25 58 -95 46
-114 -3 -6 -17 -10 -31 -10 -18 0 -24 5 -24 23 0 12 -7 33 -16 45 -14 20 -23
22 -110 22 -56 0 -94 -4 -94 -10 0 -6 34 -10 83 -10 88 0 107 -8 107 -46 0
-18 -6 -23 -32 -26 -30 -3 -33 -6 -38 -43 l-5 -40 -57 -3 c-32 -2 -58 -7 -58
-12 0 -6 99 -10 250 -10 307 0 290 8 290 -138 0 -128 -4 -132 -123 -132 l-87
0 0 40 0 40 -85 0 -85 0 0 -40 0 -40 -80 0 c-64 0 -80 -3 -80 -15 0 -12 15
-15 79 -15 l80 0 3 -42 3 -43 80 0 80 0 3 43 3 42 60 0 59 0 0 -183 c0 -165
-2 -186 -18 -200 -16 -15 -47 -17 -225 -17 -182 0 -207 -2 -207 -16 0 -14 25
-15 216 -12 l216 3 24 28 c23 28 24 32 24 213 0 149 3 184 14 184 7 0 25 9 40
21 25 20 26 23 26 140 0 152 -5 159 -114 159 l-75 0 -3 43 c-3 39 -5 42 -34
45 -30 3 -32 6 -36 53 -4 42 -12 58 -42 87 l-36 37 -110 3 c-95 3 -110 2 -110
-12z m333 -195 c5 0 7 -13 5 -28 l-3 -28 -90 0 c-79 0 -90 2 -93 18 -8 39 3
45 90 42 46 -1 87 -3 91 -4z m-33 -366 l0 -75 -55 0 -55 0 0 75 0 75 55 0 55
0 0 -75z"/>
<path d="M3971 2533 c-41 -20 -68 -63 -77 -120 -6 -39 -9 -43 -35 -43 -26 0
-28 -3 -31 -42 l-3 -43 -76 -3 c-106 -4 -113 -13 -117 -147 -4 -121 10 -162
58 -172 l30 -5 0 -189 c0 -216 2 -222 82 -234 24 -4 205 -5 402 -3 l358 3 24
28 c23 28 24 32 24 213 0 171 1 184 18 184 10 0 28 10 40 23 20 21 22 34 22
138 0 149 -3 152 -107 159 l-78 5 -5 40 c-5 36 -8 40 -36 43 -30 3 -32 6 -36
53 -4 42 -12 58 -42 87 l-36 37 -173 3 c-145 2 -177 0 -206 -15z m388 -39 c30
-25 58 -95 46 -114 -3 -6 -17 -10 -31 -10 -18 0 -24 5 -24 23 0 12 -7 33 -16
45 -15 21 -21 22 -169 22 -170 0 -185 -5 -185 -61 0 -26 -3 -29 -30 -29 -25 0
-30 4 -30 24 0 39 19 79 48 103 26 22 36 23 194 23 164 0 167 0 197 -26z m-51
-66 c7 -7 12 -22 12 -34 0 -18 -6 -23 -32 -26 -30 -3 -33 -6 -38 -43 l-5 -40
-85 0 -85 0 -3 43 c-3 39 -5 42 -33 42 -25 0 -29 4 -29 29 0 16 6 32 13 34 27
12 273 7 285 -5z m-263 -115 l0 -28 -90 0 c-79 0 -90 2 -93 18 -7 38 3 42 94
40 l89 -2 0 -28z m420 2 l0 -30 -90 0 c-79 0 -90 2 -93 18 -7 37 3 42 94 42
l89 0 0 -30z m185 -75 c17 -17 20 -33 20 -113 0 -131 -5 -137 -121 -137 l-89
0 0 40 0 40 -85 0 -85 0 0 -40 0 -40 -129 0 -130 0 -3 40 c-2 22 -6 40 -10 40
-5 0 -39 0 -78 0 l-70 0 0 -40 0 -40 -95 0 c-115 0 -115 0 -115 139 0 92 2
101 22 115 20 14 83 16 485 16 450 0 464 -1 483 -20z m-645 -265 l0 -70 -52
-3 -53 -3 0 76 0 76 53 -3 52 -3 0 -70z m425 0 l0 -75 -55 0 -55 0 0 75 0 75
55 0 55 0 0 -75z m-558 -57 l3 -43 75 0 75 0 5 40 5 40 127 3 127 3 3 -43 3
-43 80 0 80 0 3 43 3 42 60 0 59 0 0 -182 c0 -155 -2 -184 -17 -200 -15 -17
-41 -18 -395 -18 -242 0 -386 4 -399 10 -18 10 -19 23 -19 200 l0 190 59 0 60
0 3 -42z"/>
<path d="M8101 2533 c-41 -20 -68 -63 -77 -120 -6 -39 -9 -43 -35 -43 -26 0
-28 -3 -31 -42 l-3 -43 -76 -3 c-106 -4 -113 -13 -117 -147 -4 -121 10 -162
58 -172 l30 -5 0 -189 c0 -248 -19 -229 225 -229 117 0 185 4 185 10 0 6 -64
10 -171 10 -98 0 -178 4 -190 10 -18 10 -19 23 -19 200 l0 190 59 0 60 0 3
-42 3 -43 75 0 75 0 3 43 3 42 50 0 c37 0 49 4 49 15 0 11 -12 15 -50 15 l-50
0 0 40 0 40 -70 0 c-38 0 -73 1 -77 3 -5 1 -9 -17 -11 -40 l-3 -43 -94 0
c-115 0 -115 0 -115 138 0 139 -14 132 253 132 128 0 217 4 217 9 0 5 -12 11
-27 13 -25 3 -28 7 -31 46 -3 39 -5 42 -33 42 -25 0 -29 4 -29 29 0 34 14 41
76 41 24 0 44 5 44 10 0 6 -26 10 -59 10 -68 0 -91 -15 -91 -61 0 -26 -3 -29
-30 -29 -25 0 -30 4 -30 25 0 40 25 89 53 108 18 12 47 17 92 17 51 0 65 3 65
15 0 22 -114 20 -159 -2z m62 -192 c14 -1 18 -8 15 -28 l-3 -28 -90 0 -90 0
-3 27 c-2 19 2 27 14 30 16 3 110 2 157 -1z m-28 -366 l0 -70 -52 -3 -53 -3 0
76 0 76 53 -3 52 -3 0 -70z"/>
<path d="M1692 1897 c-111 -111 -202 -207 -202 -212 0 -13 122 -135 135 -135
15 0 415 403 415 418 0 6 -3 12 -8 12 -4 0 -95 -88 -202 -195 -107 -107 -200
-195 -205 -195 -6 0 -32 22 -58 48 l-48 48 198 197 c134 133 194 200 188 206
-7 7 -76 -55 -213 -192z"/>
<path d="M5822 1897 c-111 -111 -202 -207 -202 -212 0 -13 122 -135 135 -135
15 0 415 403 415 418 0 6 -3 12 -8 12 -4 0 -95 -88 -202 -195 -107 -107 -200
-195 -205 -195 -6 0 -32 22 -58 48 l-47 48 195 194 c173 173 214 220 187 220
-4 0 -98 -91 -210 -203z"/>
<path d="M625 1318 c-114 -227 -213 -419 -218 -426 -8 -10 -7 -16 4 -23 8 -5
169 -88 359 -184 190 -96 377 -191 417 -212 40 -20 75 -34 79 -30 4 3 -77 262
-179 574 -102 312 -195 601 -208 641 -13 39 -28 72 -35 72 -6 0 -105 -186
-219 -412z m412 -235 c105 -323 190 -589 189 -591 -2 -2 -29 9 -59 24 -48 24
-54 30 -46 46 16 29 -1 44 -20 19 -15 -20 -20 -21 -44 -10 -22 10 -25 16 -20
40 6 34 -11 39 -27 9 -10 -19 -13 -19 -41 -5 -24 13 -28 19 -19 35 14 26 -7
38 -25 14 -11 -16 -17 -16 -39 -6 -22 10 -25 16 -20 37 7 29 -12 35 -31 9 -10
-14 -15 -15 -36 -4 -33 17 -32 16 -20 39 8 14 8 22 -1 27 -6 4 -13 3 -15 -2
-11 -31 -20 -35 -47 -23 -23 11 -26 17 -21 41 7 31 -8 38 -23 11 -8 -14 -14
-15 -41 -3 -35 14 -35 14 -21 41 8 15 7 19 -4 19 -8 0 -19 -7 -24 -16 -7 -13
-13 -13 -36 -3 -23 11 -26 17 -21 41 8 33 -9 38 -25 8 -9 -17 -14 -18 -33 -9
-12 7 -24 13 -26 15 -4 4 392 784 399 784 3 0 91 -264 197 -587z"/>
<path d="M700 1183 c-60 -120 -113 -227 -116 -238 -4 -17 24 -34 225 -135 127
-63 233 -111 237 -108 7 8 -213 685 -226 693 -5 3 -59 -92 -120 -212z m215
-141 c52 -160 95 -294 95 -297 0 -3 -90 40 -200 95 l-200 100 101 201 c55 111
102 199 104 197 3 -2 48 -136 100 -296z"/>
<path d="M4762 1333 c-110 -219 -207 -411 -216 -427 -15 -30 -15 -30 24 -52
113 -64 821 -416 826 -411 6 5 -377 1197 -406 1265 -5 12 -14 22 -18 22 -5 0
-100 -179 -210 -397z m405 -250 c105 -323 190 -589 189 -591 -2 -2 -29 9 -59
24 -48 24 -54 30 -46 46 16 29 -1 44 -20 19 -15 -20 -20 -21 -44 -10 -24 11
-27 17 -22 41 8 33 -9 38 -25 8 -10 -19 -13 -19 -41 -5 -24 13 -28 19 -19 35
14 26 -7 38 -25 14 -11 -16 -17 -16 -39 -6 -22 10 -25 16 -20 37 7 29 -12 35
-31 9 -10 -14 -15 -15 -36 -4 -33 17 -32 16 -20 39 15 27 -4 37 -22 11 -13
-18 -18 -19 -41 -9 -23 11 -26 17 -21 41 7 30 -8 39 -23 12 -6 -11 -16 -13
-35 -9 -34 9 -41 19 -27 45 8 16 8 20 -4 20 -8 0 -19 -7 -24 -16 -7 -13 -13
-13 -36 -3 -23 11 -26 17 -21 41 8 33 -9 38 -25 8 -9 -17 -14 -18 -33 -9 -12
7 -24 13 -26 15 -4 4 392 784 399 784 3 0 91 -264 197 -587z"/>
<path d="M4826 1173 c-64 -126 -116 -233 -116 -238 0 -13 457 -241 466 -232 8
8 -212 683 -226 692 -5 3 -61 -97 -124 -222z m219 -130 c52 -161 95 -295 95
-298 0 -3 -90 40 -200 95 l-200 100 101 201 c55 111 102 199 104 197 2 -2 47
-135 100 -295z"/>
<path d="M2968 1507 c-267 -89 -490 -166 -494 -170 -9 -9 313 -987 324 -987
28 0 672 224 672 234 0 26 -67 210 -78 214 -18 6 -15 -16 18 -113 16 -49 29
-90 27 -91 -3 -3 -618 -214 -624 -214 -4 0 -95 282 -92 284 4 3 369 126 375
126 1 0 10 -24 20 -52 22 -69 33 -90 44 -83 11 7 -41 165 -55 165 -6 0 -97
-29 -203 -64 -133 -45 -194 -61 -198 -53 -45 121 -202 613 -196 618 15 14 196
69 203 61 3 -4 32 -86 64 -182 32 -96 61 -179 66 -184 26 -29 12 40 -41 199
-33 98 -57 182 -52 186 15 13 683 231 695 226 11 -4 132 -337 125 -342 -17
-13 -292 -95 -298 -89 -4 5 -18 41 -30 79 -24 75 -34 93 -44 77 -3 -5 6 -42
19 -83 14 -40 25 -78 25 -84 0 -6 -46 -26 -102 -44 -105 -34 -127 -45 -114
-58 4 -4 56 9 117 29 126 42 111 50 153 -79 27 -81 39 -102 50 -85 4 7 -31
124 -59 193 -5 14 20 26 149 69 86 28 158 55 161 59 6 10 -124 401 -133 401
-4 -1 -226 -74 -494 -163z"/>
<path d="M7098 1507 c-267 -89 -490 -166 -494 -170 -9 -9 313 -987 324 -987
28 0 672 224 672 234 0 26 -67 210 -78 214 -18 6 -15 -16 18 -113 16 -49 28
-90 27 -92 -3 -2 -619 -213 -624 -213 -4 0 -95 282 -92 284 4 3 369 126 374
126 2 0 11 -24 21 -52 22 -69 33 -90 44 -83 11 7 -41 165 -55 165 -6 0 -97
-29 -203 -64 -133 -45 -194 -61 -198 -53 -45 121 -202 613 -196 618 15 14 196
69 203 61 3 -4 32 -86 64 -182 32 -96 61 -179 66 -184 26 -29 12 40 -41 199
-33 98 -57 182 -52 186 15 14 683 231 696 226 11 -4 131 -337 123 -343 -16
-12 -291 -94 -296 -88 -4 5 -15 34 -26 64 -33 99 -35 104 -45 94 -7 -7 -1 -36
15 -84 14 -40 25 -79 25 -85 0 -7 -46 -27 -102 -45 -104 -32 -127 -44 -114
-57 5 -5 141 33 221 64 6 2 21 -29 34 -69 36 -113 50 -143 62 -131 7 7 -2 41
-26 108 -19 53 -35 99 -35 100 0 2 70 27 155 55 85 28 157 55 160 59 6 10
-124 401 -133 401 -4 -1 -226 -74 -494 -163z"/>
<path d="M1106 1644 c-52 -19 -66 -32 -66 -61 0 -14 59 -204 130 -423 l131
-399 65 -46 c36 -26 67 -45 70 -43 2 3 15 38 29 78 l25 73 -131 401 c-72 220
-138 409 -147 419 -18 20 -53 21 -106 1z m99 -44 c27 -53 21 -65 -45 -85 -66
-20 -71 -18 -89 34 -13 40 -7 50 42 68 54 20 75 16 92 -17z m129 -391 c54
-165 96 -303 93 -305 -11 -11 -122 -42 -129 -36 -9 10 -200 594 -195 598 5 6
110 42 123 43 5 1 54 -134 108 -300z m117 -355 c7 -20 5 -40 -7 -78 -9 -28
-18 -54 -21 -58 -7 -14 -103 64 -109 88 -4 14 -5 26 -3 28 3 2 107 40 127 45
1 1 7 -11 13 -25z"/>
<path d="M5236 1644 c-52 -19 -66 -32 -66 -62 0 -14 59 -204 130 -423 l131
-399 65 -46 c36 -26 67 -44 70 -42 2 3 15 38 29 78 l25 73 -131 401 c-72 220
-138 409 -147 419 -18 20 -53 21 -106 1z m109 -75 l7 -35 -62 -19 c-66 -20
-71 -18 -89 34 -14 42 -7 50 57 72 43 15 48 15 64 0 9 -9 20 -32 23 -52z m119
-360 c54 -165 96 -303 93 -305 -11 -11 -122 -42 -129 -36 -9 10 -200 594 -195
598 5 6 110 42 123 43 6 1 54 -134 108 -300z m117 -355 c7 -20 5 -40 -7 -78
-9 -28 -18 -54 -21 -58 -7 -14 -103 64 -109 88 -4 14 -5 26 -3 28 3 2 107 40
127 45 1 1 7 -11 13 -25z"/>
<path d="M2001 579 c-172 -34 -324 -184 -366 -360 -20 -87 -20 -219 0 -219 12
0 15 16 15 88 0 142 34 231 124 329 95 103 209 148 355 141 105 -5 188 -40
267 -111 101 -91 151 -201 161 -354 3 -51 10 -93 15 -93 14 0 9 162 -7 225
-65 249 -311 404 -564 354z"/>
<path d="M6131 579 c-172 -34 -324 -184 -366 -360 -20 -87 -20 -219 0 -219 12
0 15 17 15 89 0 149 43 254 142 348 97 91 199 128 337 121 107 -5 189 -40 273
-117 98 -89 145 -195 155 -348 3 -51 10 -93 15 -93 14 0 9 162 -7 225 -65 249
-311 404 -564 354z"/>
<path d="M3901 486 c-42 -42 -59 -66 -51 -71 7 -4 23 4 39 19 l27 26 21 -22
c21 -23 21 -23 2 -47 -10 -13 -19 -37 -19 -54 0 -26 22 -53 152 -184 97 -97
160 -153 172 -153 15 0 -23 44 -137 158 -114 114 -157 164 -157 181 0 31 79
111 111 111 17 0 84 -61 249 -225 141 -140 233 -225 245 -225 29 0 -440 467
-477 476 -20 4 -40 -1 -65 -16 l-36 -21 -21 20 -20 21 27 28 c30 31 34 42 14
42 -7 0 -41 -29 -76 -64z"/>
<path d="M8031 486 c-42 -42 -59 -66 -51 -71 7 -4 23 4 39 19 l27 26 21 -22
c21 -23 21 -23 2 -47 -40 -48 -28 -75 84 -188 74 -75 103 -100 105 -87 3 10
-29 50 -87 108 -109 109 -113 124 -46 185 50 46 71 50 109 20 25 -20 26 -20
26 -1 0 45 -64 63 -116 32 l-37 -21 -21 20 -20 21 27 28 c30 31 34 42 14 42
-7 0 -41 -29 -76 -64z"/>
<path d="M0 425 c0 -28 401 -428 424 -424 11 3 -52 72 -204 224 -153 153 -220
214 -220 200z"/>
<path d="M1755 158 c-35 -19 -45 -41 -45 -100 l0 -58 63 1 c44 0 56 3 42 9
-11 5 -32 9 -47 9 -27 1 -28 3 -28 51 0 38 4 52 19 60 13 6 141 10 350 10 330
0 330 0 345 -22 9 -12 16 -41 16 -65 l0 -42 -47 -4 c-43 -3 -41 -4 16 -5 l63
-2 -4 62 c-4 51 -9 65 -32 85 l-27 23 -332 0 c-221 -1 -339 -4 -352 -12z"/>
<path d="M5885 158 c-35 -19 -45 -41 -45 -100 l0 -58 63 1 c44 0 56 3 42 9
-11 5 -32 9 -47 9 -26 1 -28 4 -28 45 0 79 -12 76 365 76 334 0 334 0 349 -22
9 -12 16 -41 16 -65 l0 -42 -47 -4 c-43 -3 -41 -4 16 -5 l63 -2 -4 62 c-4 51
-9 65 -32 85 l-27 23 -332 0 c-221 -1 -339 -4 -352 -12z"/>
<path d="M0 114 c0 -26 92 -117 114 -112 12 2 -1 20 -49 68 -50 50 -65 60 -65
44z"/>
<path d="M1950 40 c-11 -11 -20 -24 -20 -30 0 -16 27 -12 34 5 7 20 55 19 77
-1 29 -26 43 -12 19 19 -27 34 -80 37 -110 7z"/>
<path d="M6080 40 c-11 -11 -20 -24 -20 -30 0 -15 27 -12 33 4 9 23 45 25 72
4 35 -28 51 -18 25 15 -27 34 -80 37 -110 7z"/>
<path d="M2178 29 c-31 -18 -20 -27 34 -27 l52 0 -23 19 c-26 21 -38 23 -63 8z"/>
<path d="M6306 24 c-9 -8 -16 -16 -16 -18 0 -1 23 -3 52 -3 l52 -1 -23 19
c-28 23 -45 24 -65 3z"/>
</g>
</svg>
